<svg width="109" height="118" viewBox="0 0 109 118" fill="none" xmlns="http://www.w3.org/2000/svg">
<path d="M60.8831 97.4502C49.0132 93.5099 38.3182 86.4707 33.2116 74.1246C28.6025 62.9808 31.4523 51.4524 44.9999 50.776C51.4131 50.4557 59.0491 54.4957 60.3357 61.3712C61.7691 69.031 53.9381 71.4913 49.3644 69.456C38.6819 64.7025 47.0109 46.7594 51.5855 34.0774C57.0029 19.0589 46.6758 6.54959 46.5968 6.62399" stroke="white" stroke-miterlimit="1.5" stroke-linecap="round" stroke-linejoin="round"/>
<path d="M48.2992 104.466C49.169 103.302 50.3948 102.618 51.5865 101.873C55.4993 99.423 60.4216 98.0451 64.8807 99.0032C60.6695 96.4429 56.0969 91.6173 56.1882 86.2194" stroke="white" stroke-miterlimit="1.5" stroke-linecap="round" stroke-linejoin="round"/>
</svg>
