<svg width="146" height="120" viewBox="0 0 146 120" fill="none" xmlns="http://www.w3.org/2000/svg">
<path fill-rule="evenodd" clip-rule="evenodd" d="M119.639 91.9222C119.914 91.9375 120.15 91.7263 120.165 91.4506C121.202 72.6707 117.259 53.7386 102.724 39.7053C96.1696 33.3775 88.3939 29.564 81.1389 29.7216C73.838 29.8803 67.1803 34.0576 62.9222 43.4525C62.8234 43.6707 62.7278 43.8913 62.6355 44.1142C56.4431 43.5017 49.7836 43.3976 43.5675 43.3004C41.1301 43.2624 38.7609 43.2253 36.5147 43.1591C24.7219 42.8116 15.9196 37.3943 10.0717 32.0371C7.14805 29.3587 4.96823 26.6998 3.52983 24.7084C2.81073 23.7129 2.2782 22.8859 1.93168 22.309C1.75814 22.02 1.63279 21.7964 1.5546 21.6475C1.52172 21.5849 1.49939 21.5397 1.48586 21.5105C1.47805 21.4786 1.46697 21.4469 1.45244 21.4161C1.33492 21.1662 1.03708 21.0589 0.787191 21.1764C0.591069 21.2686 0.529195 21.4421 0.511634 21.5181C0.493792 21.5953 0.498669 21.6583 0.501085 21.683C0.506448 21.7378 0.51976 21.7812 0.52447 21.7963C0.536548 21.835 0.552111 21.8719 0.563615 21.898C0.588911 21.9553 0.62514 22.0284 0.669211 22.1123C0.758669 22.2827 0.894055 22.5236 1.07444 22.8239C1.43577 23.4254 1.98389 24.276 2.71918 25.294C4.18956 27.3296 6.41351 30.042 9.39624 32.7744C15.3612 38.2389 24.3824 43.802 36.4853 44.1587C38.7646 44.2259 41.1569 44.2634 43.6095 44.3018C49.7253 44.3977 56.2155 44.4994 62.2609 45.0817C60.764 49.2258 60.3661 54.0408 61.2389 58.5405C62.2295 63.6472 64.8669 68.3896 69.4456 71.2643C71.9924 72.8633 74.4317 73.4648 76.6604 73.3165C78.8871 73.1682 80.866 72.2739 82.4985 70.9429C85.7473 68.2941 87.6676 63.8814 87.4995 59.9785C87.304 55.4381 85.2268 52.1318 81.9219 49.7458C78.6401 47.3765 74.1574 45.9189 69.1241 45.0013C67.3733 44.6822 65.5484 44.4273 63.6753 44.2224C63.7268 44.1026 63.7794 43.9836 63.833 43.8653C67.9594 34.761 74.3058 30.8704 81.1606 30.7214C88.0611 30.5714 95.5927 34.2105 102.029 40.4247C116.278 54.1819 120.194 72.7783 119.167 91.3954C119.152 91.6712 119.363 91.907 119.639 91.9222ZM63.288 45.1858C65.2348 45.3933 67.1298 45.6543 68.9447 45.9851C73.9199 46.8921 78.2318 48.3151 81.3365 50.5566C84.4182 52.7814 86.3194 55.8162 86.5004 60.0215C86.6549 63.6075 84.872 67.7175 81.8666 70.1679C80.3718 71.3866 78.5857 72.1861 76.594 72.3187C74.6042 72.4511 72.3716 71.9206 69.9773 70.4173C65.6857 67.7229 63.1717 63.2529 62.2206 58.3501C61.3647 53.9373 61.7831 49.2077 63.288 45.1858ZM1.21276 22.0813C1.28854 22.0457 1.3441 21.9979 1.38471 21.9484C1.33929 22.0031 1.28141 22.049 1.21276 22.0813Z" fill="white"/>
<path fill-rule="evenodd" clip-rule="evenodd" d="M119.635 98.3445C119.879 98.3437 120.087 98.1669 120.127 97.9261C121.214 91.3534 125.739 85.3578 131.23 81.3051L131.23 81.3051C131.411 81.1717 131.589 81.0385 131.767 80.9062C133.284 79.775 134.704 78.7161 136.483 78.2308C136.749 78.1581 136.906 77.8832 136.834 77.6168C136.761 77.3504 136.486 77.1934 136.22 77.266C134.246 77.8045 132.669 78.9828 131.172 80.1016C130.992 80.2359 130.814 80.3693 130.636 80.5006C125.631 84.1948 121.345 89.5051 119.651 95.4862C118.9 92.4288 117.664 89.2152 115.912 86.3552C113.72 82.7756 110.698 79.7159 106.777 78.2457C106.518 78.1487 106.23 78.2797 106.133 78.5383C106.036 78.7969 106.167 79.0851 106.426 79.182C110.074 80.5498 112.942 83.4193 115.06 86.8775C117.177 90.3343 118.523 94.3457 119.141 97.9294C119.182 98.1699 119.391 98.3453 119.635 98.3445Z" fill="white"/>
</svg>
